<?xml version="1.0" encoding="utf-8"?>
<!-- Generator: Adobe Illustrator 25.4.1, SVG Export Plug-In . SVG Version: 6.00 Build 0)  -->
<svg version="1.1" id="Layer_1" xmlns="http://www.w3.org/2000/svg" xmlns:xlink="http://www.w3.org/1999/xlink" x="0px" y="0px"
	 viewBox="0 0 24 24" style="enable-background:new 0 0 24 24;" xml:space="preserve">
<style type="text/css">
	.st0{fill:#707070;}
</style>
<path class="st0" d="M6.1,21.8h11.9c2.2,0,3.9-1.8,3.9-4.1V8.9c0-2.3-1.8-4.1-3.9-4.1h-0.7V3.1c0-0.5-0.4-0.9-0.9-0.9
	c-0.5,0-0.9,0.4-0.9,0.9v1.7H8.6V3.1c0-0.5-0.4-0.9-0.9-0.9S6.8,2.6,6.8,3.1v1.7H6.1c-2.2,0-3.9,1.8-3.9,4.1v8.9
	C2.2,20,3.9,21.8,6.1,21.8z M18,20H6.1C4.9,20,4,19,4,17.8v-7.4h16.1v7.4C20.1,19,19.1,20,18,20z M6.1,6.7h11.9c1,0,1.9,0.8,2.1,1.9
	H4C4.2,7.5,5,6.7,6.1,6.7z M9.3,13c0,0.5-0.4,0.9-0.9,0.9H6.6c-0.5,0-0.9-0.4-0.9-0.9c0-0.5,0.4-0.9,0.9-0.9h1.8
	C8.9,12.1,9.3,12.5,9.3,13z M13.8,13c0,0.5-0.4,0.9-0.9,0.9h-1.8c-0.5,0-0.9-0.4-0.9-0.9c0-0.5,0.4-0.9,0.9-0.9h1.8
	C13.4,12.1,13.8,12.5,13.8,13z M18.3,13c0,0.5-0.4,0.9-0.9,0.9h-1.8c-0.5,0-0.9-0.4-0.9-0.9c0-0.5,0.4-0.9,0.9-0.9h1.8
	C17.9,12.1,18.3,12.5,18.3,13z M9.3,16.9c0,0.5-0.4,0.9-0.9,0.9H6.6c-0.5,0-0.9-0.4-0.9-0.9c0-0.5,0.4-0.9,0.9-0.9h1.8
	C8.9,16,9.3,16.4,9.3,16.9z M13.8,16.9c0,0.5-0.4,0.9-0.9,0.9h-1.8c-0.5,0-0.9-0.4-0.9-0.9c0-0.5,0.4-0.9,0.9-0.9h1.8
	C13.4,16,13.8,16.4,13.8,16.9z M18.3,16.9c0,0.5-0.4,0.9-0.9,0.9h-1.8c-0.5,0-0.9-0.4-0.9-0.9c0-0.5,0.4-0.9,0.9-0.9h1.8
	C17.9,16,18.3,16.4,18.3,16.9z"/>
</svg>
