<?xml version="1.0" encoding="utf-8"?>
<!-- Generator: Adobe Illustrator 25.4.1, SVG Export Plug-In . SVG Version: 6.00 Build 0)  -->
<svg version="1.1" id="Layer_1" xmlns="http://www.w3.org/2000/svg" xmlns:xlink="http://www.w3.org/1999/xlink" x="0px" y="0px"
	 viewBox="0 0 24 24" style="enable-background:new 0 0 24 24;" xml:space="preserve">
<style type="text/css">
	.st0{fill:#707070;}
	.st1{fill-rule:evenodd;clip-rule:evenodd;fill:#707070;}
</style>
<path class="st0" d="M5.74,21.96h12.53c2.28,0,4.13-1.85,4.13-4.13V8.82c0-2.28-1.85-4.13-4.13-4.13H17.5V2.98
	c0-0.52-0.43-0.95-0.95-0.95c-0.52,0-0.95,0.43-0.95,0.95v1.71H8.39V2.98c0-0.52-0.43-0.95-0.95-0.95S6.5,2.46,6.5,2.98v1.71H5.74
	c-2.28,0-4.13,1.85-4.13,4.13v9.02C1.61,20.11,3.46,21.96,5.74,21.96z M18.31,20.07H5.74c-1.23,0-2.23-1-2.23-2.23v-7.45h17.03v7.45
	C20.54,19.07,19.54,20.07,18.31,20.07z M5.74,6.59h12.53c1.09,0,2.04,0.81,2.18,1.9H3.55C3.74,7.4,4.65,6.59,5.74,6.59z M9.2,13.04
	c0,0.52-0.43,0.95-0.95,0.95H6.31c-0.52,0-0.95-0.43-0.95-0.95s0.43-0.95,0.95-0.95h1.95C8.77,12.09,9.2,12.52,9.2,13.04z
	 M13.95,13.04c0,0.52-0.43,0.95-0.95,0.95h-1.95c-0.52,0-0.95-0.43-0.95-0.95s0.43-0.95,0.95-0.95H13
	C13.52,12.09,13.95,12.52,13.95,13.04z M18.69,13.04c0,0.52-0.43,0.95-0.95,0.95H15.8c-0.52,0-0.95-0.43-0.95-0.95
	s0.43-0.95,0.95-0.95h1.95C18.26,12.09,18.69,12.52,18.69,13.04z M9.2,16.98c0,0.52-0.43,0.95-0.95,0.95H6.31
	c-0.52,0-0.95-0.43-0.95-0.95c0-0.52,0.43-0.95,0.95-0.95h1.95C8.77,16.03,9.2,16.46,9.2,16.98z M13.9,16.98
	c0,0.52-0.43,0.95-0.95,0.95h-1.9c-0.52,0-0.95-0.43-0.95-0.95c0-0.52,0.43-0.95,0.95-0.95h1.9C13.47,16.03,13.9,16.46,13.9,16.98z
	 M18.64,16.98c0,0.52-0.43,0.95-0.95,0.95h-1.95c-0.52,0-0.95-0.43-0.95-0.95c0-0.52,0.43-0.95,0.95-0.95h1.95
	C18.22,16.03,18.64,16.46,18.64,16.98z"/>
</svg>
