<?xml version="1.0" encoding="utf-8"?>
<!-- Generator: Adobe Illustrator 25.4.1, SVG Export Plug-In . SVG Version: 6.00 Build 0)  -->
<svg version="1.1" id="Layer_1" xmlns="http://www.w3.org/2000/svg" xmlns:xlink="http://www.w3.org/1999/xlink" x="0px" y="0px"
	 viewBox="0 0 24 24" style="enable-background:new 0 0 24 24;" xml:space="preserve">
<style type="text/css">
	.st0{fill:#707070;}
	.st1{fill-rule:evenodd;clip-rule:evenodd;fill:#707070;}
</style>
<path class="st1" d="M13.69,12l8.04,8.04c0.48,0.48,0.48,1.24,0,1.69c-0.48,0.48-1.24,0.48-1.69,0L12,13.69l-8.04,8.04
	c-0.48,0.48-1.24,0.48-1.69,0c-0.48-0.48-0.48-1.24,0-1.69L10.31,12L2.27,3.96c-0.48-0.48-0.48-1.24,0-1.69
	c0.48-0.48,1.24-0.48,1.69,0L12,10.31l8.04-8.04c0.48-0.48,1.24-0.48,1.69,0c0.48,0.48,0.48,1.24,0,1.69L13.69,12z"/>
</svg>
