<?xml version="1.0" encoding="utf-8"?>
<!-- Generator: Adobe Illustrator 25.4.1, SVG Export Plug-In . SVG Version: 6.00 Build 0)  -->
<svg version="1.1" id="Layer_1" xmlns="http://www.w3.org/2000/svg" xmlns:xlink="http://www.w3.org/1999/xlink" x="0px" y="0px"
	 viewBox="0 0 24 24" style="enable-background:new 0 0 24 24;" xml:space="preserve">
<style type="text/css">
	.st0{fill:#707070;}
	.st1{fill-rule:evenodd;clip-rule:evenodd;fill:#707070;}
</style>
<g>
	<g>
		<g>
			<path class="st0" d="M17.35,9.01c0,0.37,0,0.74,0,1.1c0,0.88,0,1.76,0,2.64c0,1.06,0,2.11,0,3.17c0,0.91,0,1.81,0,2.72
				c0,0.43,0,0.85,0,1.28c0,0.06,0,0.11-0.01,0.17c0.01-0.08,0.02-0.17,0.03-0.25c-0.01,0.11-0.04,0.2-0.08,0.3
				c0.03-0.07,0.06-0.15,0.09-0.22c-0.04,0.11-0.1,0.2-0.17,0.29c0.05-0.06,0.1-0.13,0.15-0.19c-0.06,0.08-0.14,0.15-0.21,0.21
				c0.06-0.05,0.13-0.1,0.19-0.15c-0.09,0.07-0.19,0.12-0.29,0.17c0.07-0.03,0.15-0.06,0.22-0.09c-0.1,0.04-0.2,0.07-0.3,0.08
				c0.08-0.01,0.17-0.02,0.25-0.03c-0.13,0.02-0.26,0.01-0.4,0.01c-0.24,0-0.48,0-0.72,0c-0.81,0-1.61,0-2.42,0
				c-0.99,0-1.97,0-2.96,0c-0.84,0-1.69,0-2.53,0c-0.39,0-0.79,0-1.18,0c-0.06,0-0.11,0-0.17-0.01c0.08,0.01,0.17,0.02,0.25,0.03
				c-0.11-0.01-0.2-0.04-0.3-0.08c0.07,0.03,0.15,0.06,0.22,0.09c-0.11-0.04-0.2-0.1-0.29-0.17c0.06,0.05,0.13,0.1,0.19,0.15
				c-0.08-0.06-0.15-0.14-0.21-0.21c0.05,0.06,0.1,0.13,0.15,0.19c-0.07-0.09-0.12-0.19-0.17-0.29c0.03,0.07,0.06,0.15,0.09,0.22
				c-0.04-0.1-0.07-0.2-0.08-0.3c0.01,0.08,0.02,0.17,0.03,0.25C6.7,19.94,6.7,19.8,6.7,19.66c0-0.26,0-0.52,0-0.77
				c0-0.87,0-1.74,0-2.6c0-1.06,0-2.11,0-3.16c0-0.92,0-1.83,0-2.75c0-0.45,0.01-0.9,0-1.35c0-0.01,0-0.01,0-0.02
				c0-0.49-0.43-0.96-0.93-0.93C5.26,8.1,4.83,8.49,4.83,9.01c0,0.23,0,0.45,0,0.68c0,0.58,0,1.16,0,1.74c0,0.78,0,1.55,0,2.33
				c0,0.82,0,1.64,0,2.46c0,0.71,0,1.42,0,2.14c0,0.45,0,0.89,0,1.34c0,0.08,0,0.15,0,0.23c0.01,0.76,0.41,1.49,1.08,1.87
				c0.5,0.29,1.01,0.29,1.56,0.29c0.55,0,1.1,0,1.64,0c0.77,0,1.54,0,2.31,0c0.82,0,1.64,0,2.45,0c0.68,0,1.36,0,2.03,0
				c0.36,0,0.72,0,1.09,0c0.41,0,0.83-0.09,1.19-0.32c0.64-0.4,1.03-1.09,1.04-1.85c0-0.26,0-0.53,0-0.79c0-0.6,0-1.2,0-1.8
				c0-0.79,0-1.58,0-2.37c0-0.82,0-1.63,0-2.45c0-0.69,0-1.38,0-2.08c0-0.42,0-0.84,0-1.25c0-0.06,0-0.11,0-0.17
				c0-0.49-0.43-0.96-0.93-0.93C17.78,8.1,17.35,8.49,17.35,9.01L17.35,9.01z"/>
		</g>
	</g>
	<g>
		<g>
			<path class="st0" d="M20.75,4.9c-0.44,0-0.89,0-1.33,0c-0.82,0-1.64,0-2.46,0c-0.43,0-0.87,0-1.3,0c-0.35,0-0.7,0-1.04,0
				c-0.77,0-1.53,0-2.3,0c-0.81,0-1.62,0-2.43,0c-0.47,0-0.95,0-1.42,0c-0.3,0-0.59,0-0.89,0c-0.8,0-1.6,0-2.41,0
				c-0.6,0-1.21,0-1.81,0c-0.03,0-0.07,0-0.1,0c-0.49,0-0.96,0.43-0.93,0.93c0.02,0.51,0.41,0.93,0.93,0.93c0.44,0,0.89,0,1.33,0
				c0.82,0,1.64,0,2.46,0c0.45,0,0.89,0,1.34,0c0.34,0,0.67,0,1.01,0c0.76,0,1.52,0,2.28,0c0.81,0,1.63,0,2.44,0
				c0.48,0,0.97,0,1.45,0c0.29,0,0.58,0,0.86,0c0.8,0,1.6,0,2.39,0c0.6,0,1.21,0,1.81,0c0.03,0,0.07,0,0.1,0
				c0.49,0,0.96-0.43,0.93-0.93C21.66,5.33,21.27,4.9,20.75,4.9L20.75,4.9z"/>
		</g>
	</g>
	<g>
		<g>
			<path class="st0" d="M9.28,5.83c0-0.68,0-1.36,0-2.04c0-0.11,0-0.22,0-0.32C9.27,3.55,9.26,3.64,9.25,3.72
				c0.01-0.05,0.02-0.1,0.04-0.15C9.26,3.64,9.23,3.71,9.2,3.79c0.03-0.06,0.06-0.11,0.1-0.16C9.25,3.69,9.2,3.75,9.15,3.82
				c0.04-0.05,0.09-0.1,0.14-0.14c-0.06,0.05-0.13,0.1-0.19,0.15c0.06-0.05,0.13-0.08,0.2-0.11C9.22,3.74,9.14,3.78,9.07,3.81
				c0.06-0.02,0.12-0.04,0.19-0.05C9.17,3.77,9.09,3.78,9.01,3.79c0.21-0.03,0.44-0.01,0.65-0.01c0.47,0,0.94,0,1.41,0
				c1.07,0,2.15,0,3.22,0c0.26,0,0.53-0.02,0.79,0.01c-0.08-0.01-0.17-0.02-0.25-0.03c0.05,0.01,0.1,0.02,0.14,0.04
				c-0.07-0.03-0.15-0.06-0.22-0.09c0.05,0.02,0.1,0.05,0.15,0.09c-0.06-0.05-0.13-0.1-0.19-0.15c0.04,0.03,0.07,0.07,0.1,0.1
				c-0.05-0.06-0.1-0.13-0.15-0.19c0.04,0.05,0.07,0.1,0.09,0.15c-0.03-0.07-0.06-0.15-0.09-0.22c0.03,0.07,0.04,0.13,0.06,0.21
				c-0.01-0.08-0.02-0.17-0.03-0.25c0.03,0.27,0,0.56,0,0.83c0,0.42,0,0.84,0,1.26c0,0.1,0,0.2,0,0.3c0,0.49,0.43,0.96,0.93,0.93
				c0.51-0.02,0.93-0.41,0.93-0.93c0-0.77,0.01-1.53,0-2.3c-0.01-0.72-0.49-1.45-1.23-1.58c-0.16-0.03-0.31-0.04-0.47-0.04
				c-0.34,0-0.68,0-1.02,0c-1.08,0-2.17,0-3.25,0c-0.4,0-0.81,0-1.21,0c-0.09,0-0.18,0-0.27,0c-0.46,0-0.94,0.19-1.26,0.53
				C7.59,2.75,7.43,3.12,7.42,3.54c0,0.04,0,0.07,0,0.1c0,0.21,0,0.42,0,0.64c0,0.49,0,0.98,0,1.47c0,0.03,0,0.06,0,0.09
				c0,0.49,0.43,0.96,0.93,0.93C8.85,6.74,9.28,6.36,9.28,5.83L9.28,5.83z"/>
		</g>
	</g>
	<g>
		<g>
			<path class="st0" d="M9.04,9.01c0,0.28,0,0.56,0,0.84c0,0.67,0,1.34,0,2.02c0,0.81,0,1.63,0,2.44c0,0.7,0,1.41,0,2.11
				c0,0.34-0.01,0.68,0,1.02c0,0,0,0.01,0,0.01c0,0.49,0.43,0.96,0.93,0.93c0.51-0.02,0.93-0.41,0.93-0.93c0-0.28,0-0.56,0-0.84
				c0-0.67,0-1.34,0-2.02c0-0.81,0-1.63,0-2.44c0-0.7,0-1.41,0-2.11c0-0.34,0.01-0.68,0-1.02c0,0,0-0.01,0-0.01
				c0-0.49-0.43-0.96-0.93-0.93C9.47,8.1,9.04,8.49,9.04,9.01L9.04,9.01z"/>
		</g>
	</g>
	<g>
		<g>
			<path class="st0" d="M13.15,9.01c0,0.28,0,0.56,0,0.84c0,0.67,0,1.34,0,2.02c0,0.81,0,1.63,0,2.44c0,0.7,0,1.41,0,2.11
				c0,0.34-0.01,0.68,0,1.02c0,0,0,0.01,0,0.01c0,0.49,0.43,0.96,0.93,0.93c0.51-0.02,0.93-0.41,0.93-0.93c0-0.28,0-0.56,0-0.84
				c0-0.67,0-1.34,0-2.02c0-0.81,0-1.63,0-2.44c0-0.7,0-1.41,0-2.11c0-0.34,0.01-0.68,0-1.02c0,0,0-0.01,0-0.01
				c0-0.49-0.43-0.96-0.93-0.93C13.57,8.1,13.15,8.49,13.15,9.01L13.15,9.01z"/>
		</g>
	</g>
</g>
</svg>
