<?xml version="1.0" encoding="utf-8"?>
<!-- Generator: Adobe Illustrator 25.4.1, SVG Export Plug-In . SVG Version: 6.00 Build 0)  -->
<svg version="1.1" id="Layer_1" xmlns="http://www.w3.org/2000/svg" xmlns:xlink="http://www.w3.org/1999/xlink" x="0px" y="0px"
	 viewBox="0 0 24 24" style="enable-background:new 0 0 24 24;" xml:space="preserve">
<style type="text/css">
	.st0{fill:#707070;}
	.st1{fill-rule:evenodd;clip-rule:evenodd;fill:#707070;}
</style>
<path class="st0" d="M20.6,5.09l-1.65-1.65c-0.65-0.65-1.65-0.65-2.3,0L3.99,16.01c-0.07,0.07-0.07,0.07-0.07,0.14l-1.15,4.02
	c0,0.14,0,0.22,0.07,0.29l0.07,0.07l0.43,0.43l0.14,0.14c0.07,0.07,0.22,0.14,0.29,0.07l4.02-1.15l0,0c0.07,0,0.07-0.07,0.14-0.07
	L20.6,7.32C21.17,6.74,21.17,5.73,20.6,5.09z M18.44,3.94l1.58,1.58c0.36,0.36,0.36,0.93,0,1.29l-1.29,1.29l-2.95-2.95l1.37-1.22
	C17.51,3.58,18.08,3.58,18.44,3.94z M3.99,20.32l-0.36-0.36l1.08-3.67L15.21,5.88l2.95,2.95L8.02,18.96l-3.09-3.23
	c-0.14-0.14-0.5,0.07-0.65,0.14c-0.14,0.14-0.14,0.29,0,0.43l2.95,3.09L3.99,20.32z M16.64,8.9c0.14,0.14,0.22,0.43,0.07,0.5
	l-7.04,7.04c-0.22,0.22-0.43,0.14-0.57,0l0,0c-0.14-0.14-0.22-0.43-0.07-0.5l7.04-7.04C16.28,8.68,16.5,8.75,16.64,8.9L16.64,8.9z"
	/>
</svg>
