<svg id="Layer_1" data-name="Layer 1" xmlns="http://www.w3.org/2000/svg" viewBox="0 0 24 24"><defs><style>.cls-1{fill:#23366f;}</style></defs><g id="Group_10" data-name="Group 10"><path id="Path_9" data-name="Path 9" class="cls-1" d="M3,5.58,5,16.05V12.47l-1.34-7a.3.3,0,0,1,.23-.33h0L5,4.91V4.23l-1.24.25A.94.94,0,0,0,3,5.58Z"/><path id="Path_10" data-name="Path 10" class="cls-1" d="M20.24,4.48,19,4.23v.68l1.1.22a.3.3,0,0,1,.24.33l-1.34,7v3.58L21,5.58a.93.93,0,0,0-.74-1.1Z"/><path id="Path_11" data-name="Path 11" class="cls-1" d="M8.64,12.17H15.4c.12,0,.23-.15.23-.33s-.11-.34-.23-.34H8.64c-.13,0-.23.15-.23.34S8.51,12.17,8.64,12.17Z"/><path id="Path_12" data-name="Path 12" class="cls-1" d="M8.64,10.93H15.4c.12,0,.23-.15.23-.33s-.11-.34-.23-.34H8.64c-.13,0-.23.15-.23.34S8.51,10.93,8.64,10.93Z"/><path id="Path_13" data-name="Path 13" class="cls-1" d="M8.64,14.65H15.4c.12,0,.23-.15.23-.33S15.52,14,15.4,14H8.64c-.13,0-.23.15-.23.34S8.51,14.65,8.64,14.65Z"/><path id="Path_14" data-name="Path 14" class="cls-1" d="M8.64,13.41H15.4c.12,0,.23-.15.23-.33s-.11-.34-.23-.34H8.64c-.13,0-.23.15-.23.34S8.51,13.41,8.64,13.41Z"/><path id="Path_15" data-name="Path 15" class="cls-1" d="M11.28,9.69H16.8a.33.33,0,0,0,.33-.33h0A.34.34,0,0,0,16.8,9H11.28a.34.34,0,0,0-.34.34h0a.34.34,0,0,0,.34.33Z"/><path id="Path_16" data-name="Path 16" class="cls-1" d="M15.54,7.57A1.5,1.5,0,0,0,17,6.07h0a1.51,1.51,0,0,0-1.5-1.51h0A1.52,1.52,0,0,0,14,6.07h0a1.5,1.5,0,0,0,1.5,1.5Zm0-2.34a.84.84,0,0,1,.84.84h0a.84.84,0,0,1-.84.83h0a.84.84,0,0,1,0-1.67Z"/><path id="Path_17" data-name="Path 17" class="cls-1" d="M6.59,21.93H17.44a.91.91,0,0,0,.91-.91h0V3a.89.89,0,0,0-.88-.91H9.6a.29.29,0,0,0-.22.09L5.76,6.07a.31.31,0,0,0-.09.22V21A.92.92,0,0,0,6.59,21.93ZM9.3,3.15V5.79a.27.27,0,0,1-.25.3H6.68ZM17.74,3V21a.28.28,0,0,1-.27.29H6.59a.29.29,0,0,1-.3-.29V6.71H9a.9.9,0,0,0,.86-.92V2.67h7.54a.29.29,0,0,1,.3.3Z"/></g></svg>