<?xml version="1.0" encoding="utf-8"?>
<!-- Generator: Adobe Illustrator 25.4.1, SVG Export Plug-In . SVG Version: 6.00 Build 0)  -->
<svg version="1.1" id="Layer_1" xmlns="http://www.w3.org/2000/svg" xmlns:xlink="http://www.w3.org/1999/xlink" x="0px" y="0px"
	 viewBox="0 0 24 24" style="enable-background:new 0 0 24 24;" xml:space="preserve">
<style type="text/css">
	.st0{fill:#707070;}
	.st1{fill-rule:evenodd;clip-rule:evenodd;fill:#707070;}
</style>
<g>
	<path class="st0" d="M6.76,2.04c-1.28,0-2.35,0.88-2.67,2.06H2.65c-0.4,0-0.72,0.32-0.72,0.72c0,0,0,0,0,0.01
		c0,0.4,0.33,0.72,0.72,0.72c0,0,0,0,0,0h1.44C4.4,6.72,5.48,7.6,6.76,7.6c1.27,0,2.33-0.87,2.67-2.03l11.93-0.04
		c0.4,0,0.72-0.32,0.72-0.72c0,0,0,0,0,0c0-0.4-0.32-0.72-0.72-0.72L9.44,4.13C9.13,2.93,8.05,2.04,6.76,2.04z M6.76,3.48
		c0.75,0,1.34,0.59,1.34,1.34c0,0.75-0.59,1.34-1.34,1.34c-0.75,0-1.34-0.59-1.34-1.34C5.42,4.07,6.01,3.48,6.76,3.48z M14.45,8.99
		c-1.3,0-2.39,0.89-2.71,2.09H2.65c-0.4,0-0.72,0.32-0.72,0.72c0,0,0,0,0,0c0,0.4,0.32,0.72,0.72,0.72c0,0,0,0,0,0h9.09
		c0.32,1.2,1.41,2.1,2.71,2.1c1.3,0,2.39-0.9,2.71-2.1h4.2c0.4,0,0.72-0.32,0.72-0.72c0,0,0,0,0,0c0-0.4-0.32-0.72-0.72-0.72h-4.2
		C16.84,9.89,15.75,8.99,14.45,8.99z M14.45,10.43c0.77,0,1.38,0.6,1.38,1.37c0,0.77-0.61,1.38-1.38,1.38
		c-0.77,0-1.38-0.61-1.38-1.38C13.07,11.04,13.68,10.43,14.45,10.43z M8.85,16.33c-1.3,0-2.39,0.9-2.71,2.09h-3.5
		c-0.4,0-0.72,0.32-0.72,0.72c0,0,0,0,0,0.01c0,0.4,0.33,0.72,0.72,0.72c0,0,0,0,0,0h3.49c0.32,1.2,1.41,2.1,2.71,2.1
		c1.3,0,2.39-0.9,2.71-2.1h9.79c0.4,0,0.72-0.32,0.72-0.72c0-0.4-0.32-0.72-0.72-0.72c0,0,0,0,0,0h-9.79
		C11.24,17.23,10.15,16.33,8.85,16.33z M8.85,17.77c0.77,0,1.38,0.61,1.38,1.38c0,0.77-0.61,1.38-1.38,1.38
		c-0.77,0-1.38-0.61-1.38-1.38C7.48,18.38,8.09,17.77,8.85,17.77z"/>
</g>
</svg>
