<?xml version="1.0" encoding="utf-8"?>
<!-- Generator: Adobe Illustrator 25.4.1, SVG Export Plug-In . SVG Version: 6.00 Build 0)  -->
<svg version="1.1" id="Layer_1" xmlns="http://www.w3.org/2000/svg" xmlns:xlink="http://www.w3.org/1999/xlink" x="0px" y="0px"
	 viewBox="0 0 24 24" style="enable-background:new 0 0 24 24;" xml:space="preserve">
<style type="text/css">
	.st0{fill:#707070;}
	.st1{fill-rule:evenodd;clip-rule:evenodd;fill:#707070;}
</style>
<g>
	<path class="st0" d="M-208-42.09c-5.57,0-10.09,4.52-10.09,10.09s4.52,10.09,10.09,10.09s10.09-4.52,10.09-10.09
		S-202.43-42.09-208-42.09z M-208-23.35c-4.78,0-8.65-3.87-8.65-8.65s3.87-8.65,8.65-8.65s8.65,3.87,8.65,8.65
		S-203.22-23.35-208-23.35z M-201.51-32c0,0.4-0.32,0.72-0.72,0.72h-5.05v5.05c0,0.4-0.32,0.72-0.72,0.72s-0.72-0.32-0.72-0.72
		v-5.05h-5.05c-0.4,0-0.72-0.32-0.72-0.72s0.32-0.72,0.72-0.72h5.05v-5.05c0-0.4,0.32-0.72,0.72-0.72s0.72,0.32,0.72,0.72v5.05h5.05
		C-201.83-32.72-201.51-32.4-201.51-32z"/>
</g>
<g transform="translate(0,-288.53333)">
	<path class="st0" d="M-209.34,290.44c-4.82,0-8.75,3.92-8.75,8.75s3.93,8.74,8.75,8.74c2.17,0,4.15-0.8,5.68-2.11l4.6,4.6
		c0.26,0.26,0.69,0.26,0.95,0s0.26-0.69,0-0.95l-4.6-4.6c1.31-1.53,2.11-3.51,2.11-5.68C-200.6,294.37-204.52,290.44-209.34,290.44z
		 M-209.34,291.78c4.1,0,7.4,3.31,7.4,7.41c0,4.1-3.3,7.4-7.4,7.4c-4.1,0-7.41-3.3-7.41-7.4
		C-216.75,295.09-213.44,291.78-209.34,291.78z"/>
</g>
<path class="st0" d="M-67.36-37.76h-17.27c-0.79,0-1.44,0.64-1.45,1.43c0,0.39,0.15,0.76,0.43,1.03l8.64,8.64
	c0.56,0.56,1.47,0.56,2.03,0l8.64-8.64c0.56-0.56,0.57-1.47,0.01-2.04C-66.61-37.6-66.98-37.76-67.36-37.76z"/>
<g transform="translate(0,-288.53333)">
	<path class="st0" d="M-124.71,310.63c-0.37,0-0.67-0.3-0.67-0.67c0-0.18,0.07-0.36,0.21-0.48l8.94-8.94l-8.94-8.94
		c-0.26-0.26-0.26-0.69,0-0.95c0.26-0.26,0.69-0.26,0.95,0c0,0,0,0,0,0l9.41,9.42c0.26,0.26,0.26,0.69,0,0.95l-9.41,9.42
		C-124.35,310.55-124.53,310.63-124.71,310.63L-124.71,310.63z"/>
</g>
<g transform="translate(0,-288.53333)">
	<path class="st0" d="M-71.29,310.63c-0.18,0-0.36-0.07-0.49-0.2l-9.41-9.42c-0.26-0.26-0.26-0.69,0-0.95l9.41-9.42c0,0,0,0,0,0
		c0.26-0.26,0.69-0.26,0.95,0c0.26,0.26,0.26,0.69,0,0.95l-8.94,8.94l8.94,8.94c0.13,0.13,0.21,0.3,0.21,0.48
		C-70.62,310.33-70.92,310.63-71.29,310.63L-71.29,310.63z"/>
</g>
<g>
	<path class="st0" d="M-169.24-41.96c-1.28,0-2.35,0.88-2.67,2.06h-1.44c-0.4,0-0.72,0.32-0.72,0.72c0,0,0,0,0,0.01
		c0,0.4,0.33,0.72,0.72,0.72c0,0,0,0,0,0h1.44c0.32,1.18,1.4,2.07,2.68,2.07c1.27,0,2.33-0.87,2.67-2.03l11.93-0.04
		c0.4,0,0.72-0.32,0.72-0.72c0,0,0,0,0,0c0-0.4-0.32-0.72-0.72-0.72l-11.91,0.04C-166.87-41.07-167.95-41.96-169.24-41.96z
		 M-169.24-40.52c0.75,0,1.34,0.59,1.34,1.34c0,0.75-0.59,1.34-1.34,1.34c-0.75,0-1.34-0.59-1.34-1.34
		C-170.58-39.93-169.99-40.52-169.24-40.52z M-161.55-35.01c-1.3,0-2.39,0.89-2.71,2.09h-9.09c-0.4,0-0.72,0.32-0.72,0.72
		c0,0,0,0,0,0c0,0.4,0.32,0.72,0.72,0.72c0,0,0,0,0,0h9.09c0.32,1.2,1.41,2.1,2.71,2.1c1.3,0,2.39-0.9,2.71-2.1h4.2
		c0.4,0,0.72-0.32,0.72-0.72c0,0,0,0,0,0c0-0.4-0.32-0.72-0.72-0.72h-4.2C-159.16-34.11-160.25-35.01-161.55-35.01z M-161.55-33.57
		c0.77,0,1.38,0.6,1.38,1.37c0,0.77-0.61,1.38-1.38,1.38c-0.77,0-1.38-0.61-1.38-1.38C-162.93-32.96-162.32-33.57-161.55-33.57z
		 M-167.15-27.67c-1.3,0-2.39,0.9-2.71,2.09h-3.5c-0.4,0-0.72,0.32-0.72,0.72c0,0,0,0,0,0.01c0,0.4,0.33,0.72,0.72,0.72c0,0,0,0,0,0
		h3.49c0.32,1.2,1.41,2.1,2.71,2.1c1.3,0,2.39-0.9,2.71-2.1h9.79c0.4,0,0.72-0.32,0.72-0.72c0-0.4-0.32-0.72-0.72-0.72c0,0,0,0,0,0
		h-9.79C-164.76-26.77-165.85-27.67-167.15-27.67z M-167.15-26.23c0.77,0,1.38,0.61,1.38,1.38c0,0.77-0.61,1.38-1.38,1.38
		c-0.77,0-1.38-0.61-1.38-1.38C-168.52-25.62-167.91-26.23-167.15-26.23z"/>
</g>
<g>
	<path class="st0" d="M-119.37-32.71h-1.25c-4.37,0-7.91,3.55-7.91,7.91v0.71c-0.02,1.12,0.88,2.03,1.99,2.05c0.01,0,0.02,0,0.03,0
		h13.04c1.12,0,2.02-0.9,2.02-2.02l0,0v-0.71c0.01-4.37-3.53-7.93-7.9-7.94C-119.36-32.71-119.37-32.71-119.37-32.71z M-123.3-27.78
		c-0.31,0.16-0.55,0.43-0.68,0.76c-0.19,0.45-0.29,0.93-0.29,1.42c0,0.39-0.32,0.71-0.71,0.71l0,0c-0.39,0-0.71-0.32-0.71-0.71
		c0-0.69,0.15-1.36,0.42-1.99c0.26-0.68,0.79-1.22,1.46-1.51c0.38-0.11,0.77,0.1,0.89,0.47C-122.82-28.28-122.98-27.92-123.3-27.78
		L-123.3-27.78z"/>
	<circle class="st0" cx="-120" cy="-37.69" r="4.27"/>
</g>
<path class="st1" d="M-162.31,12l8.04,8.04c0.48,0.48,0.48,1.24,0,1.69c-0.48,0.48-1.24,0.48-1.69,0l-8.04-8.04l-8.04,8.04
	c-0.48,0.48-1.24,0.48-1.69,0c-0.48-0.48-0.48-1.24,0-1.69l8.04-8.04l-8.04-8.04c-0.48-0.48-0.48-1.24,0-1.69
	c0.48-0.48,1.24-0.48,1.69,0l8.04,8.04l8.04-8.04c0.48-0.48,1.24-0.48,1.69,0c0.48,0.48,0.48,1.24,0,1.69L-162.31,12z"/>
<path class="st0" d="M-38.26-22.04h12.53c2.28,0,4.13-1.85,4.13-4.13v-9.02c0-2.28-1.85-4.13-4.13-4.13h-0.76v-1.71
	c0-0.52-0.43-0.95-0.95-0.95c-0.52,0-0.95,0.43-0.95,0.95v1.71h-7.21v-1.71c0-0.52-0.43-0.95-0.95-0.95s-0.95,0.43-0.95,0.95v1.71
	h-0.76c-2.28,0-4.13,1.85-4.13,4.13v9.02C-42.39-23.89-40.54-22.04-38.26-22.04z M-25.69-23.93h-12.57c-1.23,0-2.23-1-2.23-2.23
	v-7.45h17.03v7.45C-23.46-24.93-24.46-23.93-25.69-23.93z M-38.26-37.41h12.53c1.09,0,2.04,0.81,2.18,1.9h-16.89
	C-40.26-36.6-39.35-37.41-38.26-37.41z M-34.8-30.96c0,0.52-0.43,0.95-0.95,0.95h-1.95c-0.52,0-0.95-0.43-0.95-0.95
	s0.43-0.95,0.95-0.95h1.95C-35.23-31.91-34.8-31.48-34.8-30.96z M-30.05-30.96c0,0.52-0.43,0.95-0.95,0.95h-1.95
	c-0.52,0-0.95-0.43-0.95-0.95s0.43-0.95,0.95-0.95H-31C-30.48-31.91-30.05-31.48-30.05-30.96z M-25.31-30.96
	c0,0.52-0.43,0.95-0.95,0.95h-1.95c-0.52,0-0.95-0.43-0.95-0.95s0.43-0.95,0.95-0.95h1.95C-25.74-31.91-25.31-31.48-25.31-30.96z
	 M-34.8-27.02c0,0.52-0.43,0.95-0.95,0.95h-1.95c-0.52,0-0.95-0.43-0.95-0.95c0-0.52,0.43-0.95,0.95-0.95h1.95
	C-35.23-27.97-34.8-27.54-34.8-27.02z M-30.1-27.02c0,0.52-0.43,0.95-0.95,0.95h-1.9c-0.52,0-0.95-0.43-0.95-0.95
	c0-0.52,0.43-0.95,0.95-0.95h1.9C-30.53-27.97-30.1-27.54-30.1-27.02z M-25.36-27.02c0,0.52-0.43,0.95-0.95,0.95h-1.95
	c-0.52,0-0.95-0.43-0.95-0.95c0-0.52,0.43-0.95,0.95-0.95h1.95C-25.78-27.97-25.36-27.54-25.36-27.02z"/>
<path class="st0" d="M-23.4,5.09l-1.65-1.65c-0.65-0.65-1.65-0.65-2.3,0l-12.65,12.58c-0.07,0.07-0.07,0.07-0.07,0.14l-1.15,4.02
	c0,0.14,0,0.22,0.07,0.29l0.07,0.07l0.43,0.43l0.14,0.14c0.07,0.07,0.22,0.14,0.29,0.07l4.02-1.15l0,0c0.07,0,0.07-0.07,0.14-0.07
	L-23.4,7.32C-22.83,6.74-22.83,5.73-23.4,5.09z M-25.56,3.94l1.58,1.58c0.36,0.36,0.36,0.93,0,1.29l-1.29,1.29l-2.95-2.95l1.37-1.22
	C-26.49,3.58-25.92,3.58-25.56,3.94z M-40.01,20.32l-0.36-0.36l1.08-3.67l10.49-10.42l2.95,2.95l-10.13,10.13l-3.09-3.23
	c-0.14-0.14-0.5,0.07-0.65,0.14c-0.14,0.14-0.14,0.29,0,0.43l2.95,3.09L-40.01,20.32z M-27.36,8.9c0.14,0.14,0.22,0.43,0.07,0.5
	l-7.04,7.04c-0.22,0.22-0.43,0.14-0.57,0l0,0c-0.14-0.14-0.22-0.43-0.07-0.5l7.04-7.04C-27.72,8.68-27.5,8.75-27.36,8.9L-27.36,8.9z
	"/>
<g>
	<g>
		<g>
			<path class="st0" d="M17.35-34.99c0,0.37,0,0.74,0,1.1c0,0.88,0,1.76,0,2.64c0,1.06,0,2.11,0,3.17c0,0.91,0,1.81,0,2.72
				c0,0.43,0,0.85,0,1.28c0,0.06,0,0.11-0.01,0.17c0.01-0.08,0.02-0.17,0.03-0.25c-0.01,0.11-0.04,0.2-0.08,0.3
				c0.03-0.07,0.06-0.15,0.09-0.22c-0.04,0.11-0.1,0.2-0.17,0.29c0.05-0.06,0.1-0.13,0.15-0.19c-0.06,0.08-0.14,0.15-0.21,0.21
				c0.06-0.05,0.13-0.1,0.19-0.15c-0.09,0.07-0.19,0.12-0.29,0.17c0.07-0.03,0.15-0.06,0.22-0.09c-0.1,0.04-0.2,0.07-0.3,0.08
				c0.08-0.01,0.17-0.02,0.25-0.03c-0.13,0.02-0.26,0.01-0.4,0.01c-0.24,0-0.48,0-0.72,0c-0.81,0-1.61,0-2.42,0
				c-0.99,0-1.97,0-2.96,0c-0.84,0-1.69,0-2.53,0c-0.39,0-0.79,0-1.18,0c-0.06,0-0.11,0-0.17-0.01c0.08,0.01,0.17,0.02,0.25,0.03
				c-0.11-0.01-0.2-0.04-0.3-0.08c0.07,0.03,0.15,0.06,0.22,0.09c-0.11-0.04-0.2-0.1-0.29-0.17c0.06,0.05,0.13,0.1,0.19,0.15
				c-0.08-0.06-0.15-0.14-0.21-0.21c0.05,0.06,0.1,0.13,0.15,0.19c-0.07-0.09-0.12-0.19-0.17-0.29c0.03,0.07,0.06,0.15,0.09,0.22
				c-0.04-0.1-0.07-0.2-0.08-0.3c0.01,0.08,0.02,0.17,0.03,0.25C6.7-24.06,6.7-24.2,6.7-24.34c0-0.26,0-0.52,0-0.77
				c0-0.87,0-1.74,0-2.6c0-1.06,0-2.11,0-3.16c0-0.92,0-1.83,0-2.75c0-0.45,0.01-0.9,0-1.35c0-0.01,0-0.01,0-0.02
				c0-0.49-0.43-0.96-0.93-0.93c-0.51,0.02-0.93,0.41-0.93,0.93c0,0.23,0,0.45,0,0.68c0,0.58,0,1.16,0,1.74c0,0.78,0,1.55,0,2.33
				c0,0.82,0,1.64,0,2.46c0,0.71,0,1.42,0,2.14c0,0.45,0,0.89,0,1.34c0,0.08,0,0.15,0,0.23c0.01,0.76,0.41,1.49,1.08,1.87
				c0.5,0.29,1.01,0.29,1.56,0.29c0.55,0,1.1,0,1.64,0c0.77,0,1.54,0,2.31,0c0.82,0,1.64,0,2.45,0c0.68,0,1.36,0,2.03,0
				c0.36,0,0.72,0,1.09,0c0.41,0,0.83-0.09,1.19-0.32c0.64-0.4,1.03-1.09,1.04-1.85c0-0.26,0-0.53,0-0.79c0-0.6,0-1.2,0-1.8
				c0-0.79,0-1.58,0-2.37c0-0.82,0-1.63,0-2.45c0-0.69,0-1.38,0-2.08c0-0.42,0-0.84,0-1.25c0-0.06,0-0.11,0-0.17
				c0-0.49-0.43-0.96-0.93-0.93C17.78-35.9,17.35-35.51,17.35-34.99L17.35-34.99z"/>
		</g>
	</g>
	<g>
		<g>
			<path class="st0" d="M20.75-39.1c-0.44,0-0.89,0-1.33,0c-0.82,0-1.64,0-2.46,0c-0.43,0-0.87,0-1.3,0c-0.35,0-0.7,0-1.04,0
				c-0.77,0-1.53,0-2.3,0c-0.81,0-1.62,0-2.43,0c-0.47,0-0.95,0-1.42,0c-0.3,0-0.59,0-0.89,0c-0.8,0-1.6,0-2.41,0
				c-0.6,0-1.21,0-1.81,0c-0.03,0-0.07,0-0.1,0c-0.49,0-0.96,0.43-0.93,0.93c0.02,0.51,0.41,0.93,0.93,0.93c0.44,0,0.89,0,1.33,0
				c0.82,0,1.64,0,2.46,0c0.45,0,0.89,0,1.34,0c0.34,0,0.67,0,1.01,0c0.76,0,1.52,0,2.28,0c0.81,0,1.63,0,2.44,0
				c0.48,0,0.97,0,1.45,0c0.29,0,0.58,0,0.86,0c0.8,0,1.6,0,2.39,0c0.6,0,1.21,0,1.81,0c0.03,0,0.07,0,0.1,0
				c0.49,0,0.96-0.43,0.93-0.93C21.66-38.67,21.27-39.1,20.75-39.1L20.75-39.1z"/>
		</g>
	</g>
	<g>
		<g>
			<path class="st0" d="M9.28-38.17c0-0.68,0-1.36,0-2.04c0-0.11,0-0.22,0-0.32c-0.01,0.08-0.02,0.17-0.03,0.25
				c0.01-0.05,0.02-0.1,0.04-0.15c-0.03,0.07-0.06,0.15-0.09,0.22c0.03-0.06,0.06-0.11,0.1-0.16c-0.05,0.06-0.1,0.13-0.15,0.19
				c0.04-0.05,0.09-0.1,0.14-0.14c-0.06,0.05-0.13,0.1-0.19,0.15c0.06-0.05,0.13-0.08,0.2-0.11c-0.07,0.03-0.15,0.06-0.22,0.09
				c0.06-0.02,0.12-0.04,0.19-0.05c-0.08,0.01-0.17,0.02-0.25,0.03c0.21-0.03,0.44-0.01,0.65-0.01c0.47,0,0.94,0,1.41,0
				c1.07,0,2.15,0,3.22,0c0.26,0,0.53-0.02,0.79,0.01c-0.08-0.01-0.17-0.02-0.25-0.03c0.05,0.01,0.1,0.02,0.14,0.04
				c-0.07-0.03-0.15-0.06-0.22-0.09c0.05,0.02,0.1,0.05,0.15,0.09c-0.06-0.05-0.13-0.1-0.19-0.15c0.04,0.03,0.07,0.07,0.1,0.1
				c-0.05-0.06-0.1-0.13-0.15-0.19c0.04,0.05,0.07,0.1,0.09,0.15c-0.03-0.07-0.06-0.15-0.09-0.22c0.03,0.07,0.04,0.13,0.06,0.21
				c-0.01-0.08-0.02-0.17-0.03-0.25c0.03,0.27,0,0.56,0,0.83c0,0.42,0,0.84,0,1.26c0,0.1,0,0.2,0,0.3c0,0.49,0.43,0.96,0.93,0.93
				c0.51-0.02,0.93-0.41,0.93-0.93c0-0.77,0.01-1.53,0-2.3c-0.01-0.72-0.49-1.45-1.23-1.58c-0.16-0.03-0.31-0.04-0.47-0.04
				c-0.34,0-0.68,0-1.02,0c-1.08,0-2.17,0-3.25,0c-0.4,0-0.81,0-1.21,0c-0.09,0-0.18,0-0.27,0c-0.46,0-0.94,0.19-1.26,0.53
				c-0.28,0.31-0.44,0.67-0.45,1.09c0,0.04,0,0.07,0,0.1c0,0.21,0,0.42,0,0.64c0,0.49,0,0.98,0,1.47c0,0.03,0,0.06,0,0.09
				c0,0.49,0.43,0.96,0.93,0.93C8.85-37.26,9.28-37.64,9.28-38.17L9.28-38.17z"/>
		</g>
	</g>
	<g>
		<g>
			<path class="st0" d="M9.04-34.99c0,0.28,0,0.56,0,0.84c0,0.67,0,1.34,0,2.02c0,0.81,0,1.63,0,2.44c0,0.7,0,1.41,0,2.11
				c0,0.34-0.01,0.68,0,1.02c0,0,0,0.01,0,0.01c0,0.49,0.43,0.96,0.93,0.93c0.51-0.02,0.93-0.41,0.93-0.93c0-0.28,0-0.56,0-0.84
				c0-0.67,0-1.34,0-2.02c0-0.81,0-1.63,0-2.44c0-0.7,0-1.41,0-2.11c0-0.34,0.01-0.68,0-1.02c0,0,0-0.01,0-0.01
				c0-0.49-0.43-0.96-0.93-0.93C9.47-35.9,9.04-35.51,9.04-34.99L9.04-34.99z"/>
		</g>
	</g>
	<g>
		<g>
			<path class="st0" d="M13.15-34.99c0,0.28,0,0.56,0,0.84c0,0.67,0,1.34,0,2.02c0,0.81,0,1.63,0,2.44c0,0.7,0,1.41,0,2.11
				c0,0.34-0.01,0.68,0,1.02c0,0,0,0.01,0,0.01c0,0.49,0.43,0.96,0.93,0.93c0.51-0.02,0.93-0.41,0.93-0.93c0-0.28,0-0.56,0-0.84
				c0-0.67,0-1.34,0-2.02c0-0.81,0-1.63,0-2.44c0-0.7,0-1.41,0-2.11c0-0.34,0.01-0.68,0-1.02c0,0,0-0.01,0-0.01
				c0-0.49-0.43-0.96-0.93-0.93C13.57-35.9,13.15-35.51,13.15-34.99L13.15-34.99z"/>
		</g>
	</g>
</g>
<g>
	<path class="st0" d="M16.03,2.55h-4.05c-0.37,0-0.68,0.3-0.68,0.68s0.3,0.68,0.68,0.68h4.05c0.84,0.11,1.44,0.88,1.35,1.72v12.77
		c0.09,0.84-0.51,1.6-1.35,1.72h-4.05c-0.37,0-0.68,0.3-0.68,0.68c0,0.37,0.3,0.68,0.68,0.68h4.05c1.59-0.11,2.8-1.48,2.7-3.07V5.61
		C18.83,4.02,17.62,2.65,16.03,2.55z"/>
	<path class="st0" d="M7.53,12.68h7.15c0.37,0,0.68-0.3,0.68-0.68c0-0.37-0.3-0.68-0.68-0.68H7.53l2.9-2.9
		c0.26-0.27,0.25-0.7-0.02-0.95c-0.26-0.25-0.68-0.25-0.94,0l-4.05,4.05c-0.26,0.26-0.26,0.69,0,0.96c0,0,0,0,0,0l4.05,4.05
		c0.27,0.26,0.7,0.25,0.95-0.02c0.25-0.26,0.25-0.68,0-0.94L7.53,12.68z"/>
</g>
</svg>
