<?xml version="1.0" encoding="utf-8"?>
<!-- Generator: Adobe Illustrator 25.4.1, SVG Export Plug-In . SVG Version: 6.00 Build 0)  -->
<svg version="1.1" id="Layer_1" xmlns="http://www.w3.org/2000/svg" xmlns:xlink="http://www.w3.org/1999/xlink" x="0px" y="0px"
	 viewBox="0 0 24 24" style="enable-background:new 0 0 24 24;" xml:space="preserve">
<style type="text/css">
	.st0{fill:#2167AE;}
	.st1{fill-rule:evenodd;clip-rule:evenodd;fill:#2167AE;}
</style>
<g>
	<path class="st0" d="M12.63,11.29h-1.25c-4.37,0-7.91,3.55-7.91,7.91v0.71c-0.02,1.12,0.88,2.03,1.99,2.05c0.01,0,0.02,0,0.03,0
		h13.04c1.12,0,2.02-0.9,2.02-2.02l0,0v-0.71c0.01-4.37-3.53-7.93-7.9-7.94C12.64,11.29,12.63,11.29,12.63,11.29z M8.7,16.22
		c-0.31,0.16-0.55,0.43-0.68,0.76c-0.19,0.45-0.29,0.93-0.29,1.42c0,0.39-0.32,0.71-0.71,0.71l0,0c-0.39,0-0.71-0.32-0.71-0.71
		c0-0.69,0.15-1.36,0.42-1.99c0.26-0.68,0.79-1.22,1.46-1.51c0.38-0.11,0.77,0.1,0.89,0.47C9.18,15.72,9.02,16.08,8.7,16.22
		L8.7,16.22z"/>
	<circle class="st0" cx="12" cy="6.31" r="4.27"/>
</g>
</svg>
