<?xml version="1.0" encoding="utf-8"?>
<!-- Generator: Adobe Illustrator 26.0.0, SVG Export Plug-In . SVG Version: 6.00 Build 0)  -->
<svg version="1.1" id="Layer_1" xmlns="http://www.w3.org/2000/svg" xmlns:xlink="http://www.w3.org/1999/xlink" x="0px" y="0px"
	 viewBox="0 0 24 24" style="enable-background:new 0 0 24 24;" xml:space="preserve">
<style type="text/css">
	.st0{fill:#707070;}
	.st1{fill-rule:evenodd;clip-rule:evenodd;fill:#707070;}
	.st2{fill:#23366F;}
</style>
<g>
	<path class="st0" d="M-208-42.1c-5.6,0-10.1,4.5-10.1,10.1s4.5,10.1,10.1,10.1s10.1-4.5,10.1-10.1S-202.4-42.1-208-42.1z
		 M-208-23.4c-4.8,0-8.6-3.9-8.6-8.6s3.9-8.7,8.6-8.7s8.6,3.9,8.6,8.7S-203.2-23.4-208-23.4z M-201.5-32c0,0.4-0.3,0.7-0.7,0.7h-5.1
		v5.1c0,0.4-0.3,0.7-0.7,0.7s-0.7-0.3-0.7-0.7v-5h-5.1c-0.4,0-0.7-0.3-0.7-0.7s0.3-0.7,0.7-0.7h5.1v-5c0-0.4,0.3-0.7,0.7-0.7
		s0.7,0.3,0.7,0.7v5h5.1C-201.8-32.7-201.5-32.4-201.5-32z"/>
</g>
<g transform="translate(0,-288.53333)">
	<path class="st0" d="M-209.3,290.4c-4.8,0-8.8,3.9-8.8,8.8s3.9,8.7,8.8,8.7c2.2,0,4.1-0.8,5.7-2.1l4.6,4.6c0.3,0.3,0.7,0.3,0.9,0
		s0.3-0.7,0-1l-4.6-4.6c1.3-1.5,2.1-3.5,2.1-5.7C-200.6,294.4-204.5,290.4-209.3,290.4z M-209.3,291.8c4.1,0,7.4,3.3,7.4,7.4
		s-3.3,7.4-7.4,7.4c-4.1,0-7.4-3.3-7.4-7.4S-213.4,291.8-209.3,291.8z"/>
</g>
<path class="st0" d="M-67.4-37.8h-17.3c-0.8,0-1.4,0.6-1.4,1.4c0,0.4,0.2,0.8,0.4,1l8.6,8.6c0.6,0.6,1.5,0.6,2,0l8.6-8.6
	c0.6-0.6,0.6-1.5,0-2C-66.6-37.6-67-37.8-67.4-37.8z"/>
<g transform="translate(0,-288.53333)">
	<path class="st0" d="M-124.7,310.6c-0.4,0-0.7-0.3-0.7-0.7c0-0.2,0.1-0.4,0.2-0.5l8.9-8.9l-8.9-8.9c-0.3-0.3-0.3-0.7,0-1
		s0.7-0.3,0.9,0l0,0l9.4,9.4c0.3,0.3,0.3,0.7,0,1l-9.4,9.4C-124.3,310.5-124.5,310.6-124.7,310.6L-124.7,310.6z"/>
</g>
<g transform="translate(0,-288.53333)">
	<path class="st0" d="M-71.3,310.6c-0.2,0-0.4-0.1-0.5-0.2l-9.4-9.4c-0.3-0.3-0.3-0.7,0-1l9.4-9.4l0,0c0.3-0.3,0.7-0.3,0.9,0
		c0.3,0.3,0.3,0.7,0,1l-8.9,8.9l8.9,8.9c0.1,0.1,0.2,0.3,0.2,0.5C-70.6,310.3-70.9,310.6-71.3,310.6L-71.3,310.6z"/>
</g>
<g>
	<path class="st0" d="M-169.2-42c-1.3,0-2.4,0.9-2.7,2.1h-1.4c-0.4,0-0.7,0.3-0.7,0.7c0,0,0,0,0,0c0,0.4,0.3,0.7,0.7,0.7l0,0h1.4
		c0.3,1.2,1.4,2.1,2.7,2.1c1.3,0,2.3-0.9,2.7-2l11.9,0c0.4,0,0.7-0.3,0.7-0.7l0,0c0-0.4-0.3-0.7-0.7-0.7l-11.9,0
		C-166.9-41.1-167.9-42-169.2-42z M-169.2-40.5c0.8,0,1.3,0.6,1.3,1.3s-0.6,1.3-1.3,1.3s-1.3-0.6-1.3-1.3S-170-40.5-169.2-40.5z
		 M-161.6-35c-1.3,0-2.4,0.9-2.7,2.1h-9.1c-0.4,0-0.7,0.3-0.7,0.7l0,0c0,0.4,0.3,0.7,0.7,0.7l0,0h9.1c0.3,1.2,1.4,2.1,2.7,2.1
		s2.4-0.9,2.7-2.1h4.2c0.4,0,0.7-0.3,0.7-0.7l0,0c0-0.4-0.3-0.7-0.7-0.7h-4.2C-159.2-34.1-160.2-35-161.6-35z M-161.6-33.6
		c0.8,0,1.4,0.6,1.4,1.4s-0.6,1.4-1.4,1.4s-1.4-0.6-1.4-1.4C-162.9-33-162.3-33.6-161.6-33.6z M-167.1-27.7c-1.3,0-2.4,0.9-2.7,2.1
		h-3.5c-0.4,0-0.7,0.3-0.7,0.7c0,0,0,0,0,0c0,0.4,0.3,0.7,0.7,0.7l0,0h3.5c0.3,1.2,1.4,2.1,2.7,2.1s2.4-0.9,2.7-2.1h9.8
		c0.4,0,0.7-0.3,0.7-0.7s-0.3-0.7-0.7-0.7l0,0h-9.8C-164.8-26.8-165.9-27.7-167.1-27.7z M-167.1-26.2c0.8,0,1.4,0.6,1.4,1.4
		c0,0.8-0.6,1.4-1.4,1.4s-1.4-0.6-1.4-1.4C-168.5-25.6-167.9-26.2-167.1-26.2z"/>
</g>
<g>
	<path class="st0" d="M-119.4-32.7h-1.2c-4.4,0-7.9,3.5-7.9,7.9v0.7c0,1.1,0.9,2,2,2c0,0,0,0,0,0h13c1.1,0,2-0.9,2-2l0,0v-0.7
		C-111.4-29.1-115-32.7-119.4-32.7C-119.4-32.7-119.4-32.7-119.4-32.7z M-123.3-27.8c-0.3,0.2-0.6,0.4-0.7,0.8
		c-0.2,0.5-0.3,0.9-0.3,1.4c0,0.4-0.3,0.7-0.7,0.7l0,0c-0.4,0-0.7-0.3-0.7-0.7c0-0.7,0.2-1.4,0.4-2c0.3-0.7,0.8-1.2,1.5-1.5
		c0.4-0.1,0.8,0.1,0.9,0.5C-122.8-28.3-123-27.9-123.3-27.8L-123.3-27.8z"/>
	<circle class="st0" cx="-120" cy="-37.7" r="4.3"/>
</g>
<path class="st1" d="M-162.3,12l8,8c0.5,0.5,0.5,1.2,0,1.7c-0.5,0.5-1.2,0.5-1.7,0l-8-8l-8,8c-0.5,0.5-1.2,0.5-1.7,0
	c-0.5-0.5-0.5-1.2,0-1.7l8-8l-8-8c-0.5-0.5-0.5-1.2,0-1.7c0.5-0.5,1.2-0.5,1.7,0l8,8l8-8c0.5-0.5,1.2-0.5,1.7,0
	c0.5,0.5,0.5,1.2,0,1.7L-162.3,12z"/>
<path class="st0" d="M-38.3-22h12.5c2.3,0,4.1-1.9,4.1-4.1v-9c0-2.3-1.9-4.1-4.1-4.1h-0.8V-41c0-0.5-0.4-1-1-1s-1,0.4-1,1v1.7h-7.2
	V-41c0-0.5-0.4-1-1-1s-1,0.4-1,1v1.7h-0.8c-2.3,0-4.1,1.8-4.1,4.1v9C-42.4-23.9-40.5-22-38.3-22z M-25.7-23.9h-12.6
	c-1.2,0-2.2-1-2.2-2.2v-7.5h17v7.5C-23.5-24.9-24.5-23.9-25.7-23.9z M-38.3-37.4h12.5c1.1,0,2,0.8,2.2,1.9h-16.9
	C-40.3-36.6-39.3-37.4-38.3-37.4z M-34.8-31c0,0.5-0.4,1-1,1h-2c-0.5,0-1-0.4-1-1s0.4-1,1-1h2C-35.2-31.9-34.8-31.5-34.8-31z
	 M-30-31c0,0.5-0.4,1-1,1h-2c-0.5,0-1-0.4-1-1s0.4-1,1-1h2C-30.5-31.9-30-31.5-30-31z M-25.3-31c0,0.5-0.4,1-1,1h-2
	c-0.5,0-1-0.4-1-1s0.4-1,1-1h2C-25.7-31.9-25.3-31.5-25.3-31z M-34.8-27c0,0.5-0.4,1-1,1h-2c-0.5,0-1-0.4-1-1s0.4-1,1-1h2
	C-35.2-28-34.8-27.5-34.8-27z M-30.1-27c0,0.5-0.4,1-1,1H-33c-0.5,0-1-0.4-1-1s0.4-1,1-1h1.9C-30.5-28-30.1-27.5-30.1-27z M-25.4-27
	c0,0.5-0.4,1-1,1h-2c-0.5,0-1-0.4-1-1s0.4-1,1-1h2C-25.8-28-25.4-27.5-25.4-27z"/>
<path class="st0" d="M-23.4,5.1L-25,3.4c-0.6-0.7-1.6-0.7-2.3,0L-40,16c-0.1,0.1-0.1,0.1-0.1,0.1l-1.2,4c0,0.1,0,0.2,0.1,0.3
	l0.1,0.1l0.4,0.4l0.1,0.1c0.1,0.1,0.2,0.1,0.3,0.1l4-1.1l0,0c0.1,0,0.1-0.1,0.1-0.1l12.7-12.6C-22.8,6.7-22.8,5.7-23.4,5.1z
	 M-25.6,3.9l1.6,1.6c0.4,0.4,0.4,0.9,0,1.3l-1.3,1.3l-3-2.9l1.4-1.2C-26.5,3.6-25.9,3.6-25.6,3.9z M-40,20.3l-0.4-0.4l1.1-3.7
	l10.5-10.4l3,2.9L-36,18.9l-3.1-3.2c-0.1-0.1-0.5,0.1-0.7,0.1c-0.1,0.1-0.1,0.3,0,0.4l3,3.1L-40,20.3z M-27.4,8.9
	c0.1,0.1,0.2,0.4,0.1,0.5l-7,7c-0.2,0.2-0.4,0.1-0.6,0l0,0c-0.1-0.1-0.2-0.4-0.1-0.5l7-7C-27.7,8.7-27.5,8.8-27.4,8.9L-27.4,8.9z"/>
<g>
	<g>
		<g>
			<path class="st0" d="M17.4-35c0,0.4,0,0.7,0,1.1c0,0.9,0,1.8,0,2.6c0,1.1,0,2.1,0,3.2c0,0.9,0,1.8,0,2.7c0,0.4,0,0.9,0,1.3
				c0,0.1,0,0.1,0,0.2c0-0.1,0-0.2,0-0.2c0,0.1,0,0.2-0.1,0.3c0-0.1,0.1-0.1,0.1-0.2c0,0.1-0.1,0.2-0.2,0.3c0-0.1,0.1-0.1,0.1-0.2
				c-0.1,0.1-0.1,0.1-0.2,0.2c0.1,0,0.1-0.1,0.2-0.1c-0.1,0.1-0.2,0.1-0.3,0.2c0.1,0,0.1-0.1,0.2-0.1c-0.1,0-0.2,0.1-0.3,0.1
				c0.1,0,0.2,0,0.2,0c-0.1,0-0.3,0-0.4,0c-0.2,0-0.5,0-0.7,0c-0.8,0-1.6,0-2.4,0c-1,0-2,0-3,0c-0.8,0-1.7,0-2.5,0
				c-0.4,0-0.8,0-1.2,0c-0.1,0-0.1,0-0.2,0c0.1,0,0.2,0,0.2,0c-0.1,0-0.2,0-0.3-0.1c0.1,0,0.2,0.1,0.2,0.1c-0.1,0-0.2-0.1-0.3-0.2
				c0.1,0,0.1,0.1,0.2,0.1c-0.1-0.1-0.2-0.1-0.2-0.2c0.1,0.1,0.1,0.1,0.2,0.2c-0.1-0.1-0.1-0.2-0.2-0.3c0,0.1,0.1,0.1,0.1,0.2
				c0-0.1-0.1-0.2-0.1-0.3c0,0.1,0,0.2,0,0.2c0-0.1,0-0.3,0-0.4c0-0.3,0-0.5,0-0.8c0-0.9,0-1.7,0-2.6c0-1.1,0-2.1,0-3.2
				c0-0.9,0-1.8,0-2.8c0-0.5,0-0.9,0-1.3c0,0,0,0,0,0c0-0.5-0.4-1-0.9-0.9c-0.5,0-0.9,0.4-0.9,0.9c0,0.2,0,0.5,0,0.7
				c0,0.6,0,1.2,0,1.7c0,0.8,0,1.5,0,2.3c0,0.8,0,1.6,0,2.5c0,0.7,0,1.4,0,2.1c0,0.5,0,0.9,0,1.3c0,0.1,0,0.1,0,0.2
				c0,0.8,0.4,1.5,1.1,1.9c0.5,0.3,1,0.3,1.6,0.3s1.1,0,1.6,0c0.8,0,1.5,0,2.3,0c0.8,0,1.6,0,2.4,0c0.7,0,1.4,0,2,0
				c0.4,0,0.7,0,1.1,0c0.4,0,0.8-0.1,1.2-0.3c0.6-0.4,1-1.1,1-1.9c0-0.3,0-0.5,0-0.8c0-0.6,0-1.2,0-1.8c0-0.8,0-1.6,0-2.4
				c0-0.8,0-1.6,0-2.5c0-0.7,0-1.4,0-2.1c0-0.4,0-0.8,0-1.2c0-0.1,0-0.1,0-0.2c0-0.5-0.4-1-0.9-0.9C17.8-35.9,17.4-35.5,17.4-35
				L17.4-35z"/>
		</g>
	</g>
	<g>
		<g>
			<path class="st0" d="M20.8-39.1c-0.4,0-0.9,0-1.3,0c-0.8,0-1.6,0-2.5,0c-0.4,0-0.9,0-1.3,0c-0.4,0-0.7,0-1,0c-0.8,0-1.5,0-2.3,0
				c-0.8,0-1.6,0-2.4,0c-0.5,0-0.9,0-1.4,0c-0.3,0-0.6,0-0.9,0c-0.8,0-1.6,0-2.4,0c-0.6,0-1.2,0-1.8,0c0,0-0.1,0-0.1,0
				c-0.5,0-1,0.4-0.9,0.9c0,0.5,0.4,0.9,0.9,0.9c0.4,0,0.9,0,1.3,0c0.8,0,1.6,0,2.5,0c0.4,0,0.9,0,1.3,0c0.3,0,0.7,0,1,0
				c0.8,0,1.5,0,2.3,0c0.8,0,1.6,0,2.4,0c0.5,0,1,0,1.4,0c0.3,0,0.6,0,0.9,0c0.8,0,1.6,0,2.4,0c0.6,0,1.2,0,1.8,0c0,0,0.1,0,0.1,0
				c0.5,0,1-0.4,0.9-0.9C21.7-38.7,21.3-39.1,20.8-39.1L20.8-39.1z"/>
		</g>
	</g>
	<g>
		<g>
			<path class="st0" d="M9.3-38.2c0-0.7,0-1.4,0-2c0-0.1,0-0.2,0-0.3c0,0.1,0,0.2,0,0.2c0,0,0-0.1,0-0.2c0,0.1-0.1,0.2-0.1,0.2
				c0-0.1,0.1-0.1,0.1-0.2c-0.1,0.1-0.1,0.1-0.1,0.2c0,0,0.1-0.1,0.1-0.1c-0.1,0-0.1,0.1-0.2,0.2c0.1,0,0.1-0.1,0.2-0.1
				c-0.1,0-0.1,0.1-0.2,0.1c0.1,0,0.1,0,0.2,0c-0.1,0-0.2,0-0.2,0c0.2,0,0.4,0,0.6,0c0.5,0,0.9,0,1.4,0c1.1,0,2.1,0,3.2,0
				c0.3,0,0.5,0,0.8,0c-0.1,0-0.2,0-0.2,0c0.1,0,0.1,0,0.1,0c-0.1,0-0.1-0.1-0.2-0.1c0.1,0,0.1,0,0.1,0.1c-0.1,0-0.1-0.1-0.2-0.2
				c0,0,0.1,0.1,0.1,0.1c-0.1-0.1-0.1-0.1-0.1-0.2c0,0,0.1,0.1,0.1,0.2c0-0.1-0.1-0.2-0.1-0.2c0,0.1,0,0.1,0.1,0.2
				c0-0.1,0-0.2,0-0.2c0,0.3,0,0.6,0,0.8c0,0.4,0,0.8,0,1.3c0,0.1,0,0.2,0,0.3c0,0.5,0.4,1,0.9,0.9c0.5,0,0.9-0.4,0.9-0.9
				c0-0.8,0-1.5,0-2.3c0-0.7-0.5-1.5-1.2-1.6c-0.2,0-0.3,0-0.5,0c-0.3,0-0.7,0-1,0c-1.1,0-2.2,0-3.2,0c-0.4,0-0.8,0-1.2,0
				c-0.1,0-0.2,0-0.3,0c-0.5,0-0.9,0.2-1.3,0.5c-0.3,0.3-0.4,0.7-0.4,1.1c0,0,0,0.1,0,0.1c0,0.2,0,0.4,0,0.6c0,0.5,0,1,0,1.5
				c0,0,0,0.1,0,0.1c0,0.5,0.4,1,0.9,0.9C8.9-37.3,9.3-37.6,9.3-38.2L9.3-38.2z"/>
		</g>
	</g>
	<g>
		<g>
			<path class="st0" d="M9-35c0,0.3,0,0.6,0,0.8c0,0.7,0,1.3,0,2c0,0.8,0,1.6,0,2.4c0,0.7,0,1.4,0,2.1c0,0.3,0,0.7,0,1v0
				c0,0.5,0.4,1,0.9,0.9c0.5,0,0.9-0.4,0.9-0.9c0-0.3,0-0.6,0-0.8c0-0.7,0-1.3,0-2c0-0.8,0-1.6,0-2.4c0-0.7,0-1.4,0-2.1
				c0-0.3,0-0.7,0-1v0c0-0.5-0.4-1-0.9-0.9C9.5-35.9,9-35.5,9-35L9-35z"/>
		</g>
	</g>
	<g>
		<g>
			<path class="st0" d="M13.1-35c0,0.3,0,0.6,0,0.8c0,0.7,0,1.3,0,2c0,0.8,0,1.6,0,2.4c0,0.7,0,1.4,0,2.1c0,0.3,0,0.7,0,1v0
				c0,0.5,0.4,1,0.9,0.9c0.5,0,0.9-0.4,0.9-0.9c0-0.3,0-0.6,0-0.8c0-0.7,0-1.3,0-2c0-0.8,0-1.6,0-2.4c0-0.7,0-1.4,0-2.1
				c0-0.3,0-0.7,0-1v0c0-0.5-0.4-1-0.9-0.9C13.6-35.9,13.1-35.5,13.1-35L13.1-35z"/>
		</g>
	</g>
</g>
<g>
	<path class="st2" d="M16,2.5H12c-0.4,0-0.7,0.3-0.7,0.7s0.3,0.7,0.7,0.7H16c0.8,0.1,1.4,0.9,1.4,1.7v12.8c0.1,0.8-0.5,1.6-1.4,1.7
		H12c-0.4,0-0.7,0.3-0.7,0.7c0,0.4,0.3,0.7,0.7,0.7H16c1.6-0.1,2.8-1.5,2.7-3.1V5.6C18.8,4,17.6,2.7,16,2.5z"/>
	<path class="st2" d="M7.5,12.7h7.2c0.4,0,0.7-0.3,0.7-0.7c0-0.4-0.3-0.7-0.7-0.7H7.5l2.9-2.9c0.3-0.3,0.2-0.7,0-0.9
		c-0.3-0.2-0.7-0.2-0.9,0l-4.1,4.1c-0.3,0.3-0.3,0.7,0,1l0,0l4.1,4.1c0.3,0.3,0.7,0.2,0.9,0c0.2-0.3,0.2-0.7,0-0.9L7.5,12.7z"/>
</g>
</svg>
