<?xml version="1.0" encoding="utf-8"?>
<!-- Generator: Adobe Illustrator 25.4.1, SVG Export Plug-In . SVG Version: 6.00 Build 0)  -->
<svg version="1.1" id="Layer_1" xmlns="http://www.w3.org/2000/svg" xmlns:xlink="http://www.w3.org/1999/xlink" x="0px" y="0px"
	 viewBox="0 0 24 24" style="enable-background:new 0 0 24 24;" xml:space="preserve">
<style type="text/css">
	.st0{fill:#FFFFFF;}
	.st1{fill-rule:evenodd;clip-rule:evenodd;fill:#FFFFFF;}
</style>
<g>
	<path class="st0" d="M12,1.91C6.43,1.91,1.91,6.43,1.91,12S6.43,22.09,12,22.09S22.09,17.57,22.09,12S17.57,1.91,12,1.91z
		 M12,20.65c-4.78,0-8.65-3.87-8.65-8.65S7.22,3.35,12,3.35s8.65,3.87,8.65,8.65S16.78,20.65,12,20.65z M18.49,12
		c0,0.4-0.32,0.72-0.72,0.72h-5.05v5.05c0,0.4-0.32,0.72-0.72,0.72c-0.4,0-0.72-0.32-0.72-0.72v-5.05H6.23
		c-0.4,0-0.72-0.32-0.72-0.72c0-0.4,0.32-0.72,0.72-0.72h5.05V6.23c0-0.4,0.32-0.72,0.72-0.72c0.4,0,0.72,0.32,0.72,0.72v5.05h5.05
		C18.17,11.28,18.49,11.6,18.49,12z"/>
</g>
</svg>
