<svg id="Layer_1" data-name="Layer 1" xmlns="http://www.w3.org/2000/svg" viewBox="0 0 24 24"><defs><style>.cls-1{fill:#23366f;}</style></defs><g id="Group_13" data-name="Group 13"><path id="Path_35" data-name="Path 35" class="cls-1" d="M10.17,11a2.81,2.81,0,0,0,1.79.75h0a2.62,2.62,0,0,0,1.82-.73c.93-.88,1.43-2.39,1.43-4.49A.4.4,0,0,0,15,6.2a8.48,8.48,0,0,1-2.73-1.54.44.44,0,0,0-.49,0A9.14,9.14,0,0,1,9,6.2a.4.4,0,0,0-.26.36C8.74,8.64,9.21,10.17,10.17,11ZM12,5.44a8.46,8.46,0,0,0,2.47,1.38,5.14,5.14,0,0,1-1.14,3.63A1.87,1.87,0,0,1,12,11H12a1.9,1.9,0,0,1-1.29-.55A5,5,0,0,1,9.54,6.82,8.41,8.41,0,0,0,12,5.44Z"/><path id="Path_36" data-name="Path 36" class="cls-1" d="M19.52,2H8A2.1,2.1,0,0,0,6.07,4.08V17.83H2.86a.33.33,0,0,0-.32.33V20.1A2.1,2.1,0,0,0,4.63,22H15.82a2.13,2.13,0,0,0,2.11-2.11V6.17h3.21a.33.33,0,0,0,.32-.33V4.08A2.13,2.13,0,0,0,19.52,2ZM4.63,21.37A1.47,1.47,0,0,1,3.18,20V18.48H13.73v1.44a2.08,2.08,0,0,0,.15.78L14,21s0,0,0,0a1.43,1.43,0,0,0,.15.22l0,0s.06.06.08.1H4.63Zm12.63-1.45a1.49,1.49,0,0,1-.38,1,1.45,1.45,0,0,1-2,.07,1.54,1.54,0,0,1-.35-.52,1.41,1.41,0,0,1-.11-.54V18.16a.34.34,0,0,0-.32-.33H6.71V4.08A1.46,1.46,0,0,1,8.05,2.64h9.8l0,0s-.06.06-.08.1,0,0,0,0h0a.6.6,0,0,0-.09.13h0a2.11,2.11,0,0,0-.35.94V19.92Zm3.53-14.4H17.91V4a1.76,1.76,0,0,1,.13-.5A1.41,1.41,0,0,1,19,2.68a.73.73,0,0,1,.25,0h.24A1.46,1.46,0,0,1,20.8,4.08Z"/><path id="Path_37" data-name="Path 37" class="cls-1" d="M11.63,9.1A.35.35,0,0,0,11.94,9l1.43-2a.39.39,0,1,0-.63-.47L11.63,8l-.39-.55a.4.4,0,0,0-.55-.07.38.38,0,0,0-.08.54l.73,1A.33.33,0,0,0,11.63,9.1Z"/><path id="Path_38" data-name="Path 38" class="cls-1" d="M15.84,15H8.12a.38.38,0,0,0-.38.39.39.39,0,0,0,.38.39h7.72a.4.4,0,0,0,.39-.39A.39.39,0,0,0,15.84,15Z"/><path id="Path_39" data-name="Path 39" class="cls-1" d="M15.84,13.26H8.12a.38.38,0,0,0-.38.39.39.39,0,0,0,.38.39h7.72a.4.4,0,0,0,.39-.39A.39.39,0,0,0,15.84,13.26Z"/><path id="Path_40" data-name="Path 40" class="cls-1" d="M15.84,11.59H8.12a.38.38,0,0,0-.38.39.39.39,0,0,0,.38.39h7.72a.4.4,0,0,0,.39-.39A.39.39,0,0,0,15.84,11.59Z"/></g></svg>