<svg id="Layer_1" data-name="Layer 1" xmlns="http://www.w3.org/2000/svg" viewBox="0 0 24 24"><defs><style>.cls-1{fill:#eceeef;}.cls-2{fill:none;stroke:#eceeef;stroke-miterlimit:10;}</style></defs><g id="Group_15" data-name="Group 15"><path id="Path_43" data-name="Path 43" class="cls-1" d="M3.66,7.55a.58.58,0,0,0-.17.37v9.29a2.12,2.12,0,0,0,2.25,1.92H9.28a.51.51,0,0,0,.58-.42.53.53,0,0,0-.42-.59.43.43,0,0,0-.16,0H5.71a1,1,0,0,1-1.06-.91V8.58H9a.54.54,0,0,0,.59-.5h0v-4H15.2A1,1,0,0,1,16.27,5V9.47a.6.6,0,0,0,1.18,0V5A2.11,2.11,0,0,0,15.2,3.1H9a.62.62,0,0,0-.43.16Z"/><path id="Path_44" data-name="Path 44" class="cls-2" d="M9.84,19.51v.1a1.29,1.29,0,0,0,1.29,1.29h8.08a1.31,1.31,0,0,0,1.3-1.29v-.15a2.47,2.47,0,0,0-1.28-2.15l-1.84-1v-.47a5.13,5.13,0,0,0,.66-1.4,1.37,1.37,0,0,0,.38-.94v-.83a1.35,1.35,0,0,0-.21-.73v-.4a2.48,2.48,0,0,0-.57-1.75,3.15,3.15,0,0,0-2.48-.92,3.16,3.16,0,0,0-2.48.92,2.43,2.43,0,0,0-.56,1.75v.4a1.36,1.36,0,0,0-.22.73v.83a1.37,1.37,0,0,0,.59,1.13,5.47,5.47,0,0,0,.62,1.14l0,.07v.52l-1.95,1A2.48,2.48,0,0,0,9.84,19.51Z"/></g></svg>