<?xml version="1.0" encoding="utf-8"?>
<!-- Generator: Adobe Illustrator 25.4.1, SVG Export Plug-In . SVG Version: 6.00 Build 0)  -->
<svg version="1.1" id="Layer_1" xmlns="http://www.w3.org/2000/svg" xmlns:xlink="http://www.w3.org/1999/xlink" x="0px" y="0px"
	 viewBox="0 0 24 24" style="enable-background:new 0 0 24 24;" xml:space="preserve">
<style type="text/css">
	.st0{fill:#FFFFFF;}
</style>
<g>
	<path class="st0" d="M12.6,11.3h-1.2c-4.4,0-7.9,3.6-7.9,7.9v0.7c0,1.1,0.9,2,2,2c0,0,0,0,0,0h13c1.1,0,2-0.9,2-2l0,0v-0.7
		C20.6,14.9,17,11.3,12.6,11.3C12.6,11.3,12.6,11.3,12.6,11.3z M8.7,16.2C8.4,16.4,8.1,16.6,8,17c-0.2,0.5-0.3,0.9-0.3,1.4
		c0,0.4-0.3,0.7-0.7,0.7l0,0c-0.4,0-0.7-0.3-0.7-0.7c0-0.7,0.2-1.4,0.4-2c0.3-0.7,0.8-1.2,1.5-1.5C8.6,14.8,9,15,9.1,15.4
		C9.2,15.7,9,16.1,8.7,16.2L8.7,16.2z"/>
	<circle class="st0" cx="12" cy="6.3" r="4.3"/>
</g>
</svg>
