<?xml version="1.0" encoding="utf-8"?>
<!-- Generator: Adobe Illustrator 25.4.1, SVG Export Plug-In . SVG Version: 6.00 Build 0)  -->
<svg version="1.1" id="Layer_1" xmlns="http://www.w3.org/2000/svg" xmlns:xlink="http://www.w3.org/1999/xlink" x="0px" y="0px"
	 viewBox="0 0 24 24" style="enable-background:new 0 0 24 24;" xml:space="preserve">
<style type="text/css">
	.st0{fill:#707070;}
	.st1{fill-rule:evenodd;clip-rule:evenodd;fill:#707070;}
</style>
<g transform="translate(0,-288.53333)">
	<path class="st0" d="M10.66,290.44c-4.82,0-8.75,3.92-8.75,8.75c0,4.82,3.93,8.74,8.75,8.74c2.17,0,4.15-0.8,5.68-2.11l4.6,4.6
		c0.26,0.26,0.69,0.26,0.95,0s0.26-0.69,0-0.95l-4.6-4.6c1.31-1.53,2.11-3.51,2.11-5.68C19.4,294.37,15.48,290.44,10.66,290.44z
		 M10.66,291.78c4.1,0,7.4,3.31,7.4,7.41c0,4.1-3.3,7.4-7.4,7.4s-7.41-3.3-7.41-7.4C3.25,295.09,6.56,291.78,10.66,291.78z"/>
</g>
</svg>
