<svg id="Layer_1" data-name="Layer 1" xmlns="http://www.w3.org/2000/svg" viewBox="0 0 24 24"><defs><style>.cls-1{fill:#eceeef;}</style></defs><g id="Group_14" data-name="Group 14"><path id="Path_41" data-name="Path 41" class="cls-1" d="M8.16,14.63v1.76a.52.52,0,1,0,1,0v-2A.54.54,0,0,0,9,13.92a3.26,3.26,0,0,1,.17-5.54v2.33a1,1,0,0,0,1,1h1a1,1,0,0,0,1-1h0V8.38a3.28,3.28,0,0,1,1.17,4.48,3.33,3.33,0,0,1-1,1.07.52.52,0,0,0-.23.43v2a.52.52,0,1,0,1,0V14.63a4.29,4.29,0,0,0,.81-6,4.36,4.36,0,0,0-2.15-1.5.52.52,0,0,0-.64.36.59.59,0,0,0,0,.14v3.08h-.89V7.61a.52.52,0,0,0-.52-.52l-.14,0a4.3,4.3,0,0,0-2.84,5.37A4.4,4.4,0,0,0,8.16,14.63Z"/><path id="Path_42" data-name="Path 42" class="cls-1" d="M18.34,6.56H16.53V2.79a1.22,1.22,0,0,0-1.21-1.22H8.05l-.11,0,0,0-.09.07-.43.43-3,3a.4.4,0,0,0-.12.22h0V18a1.21,1.21,0,0,0,1.19,1.22h2v1.92a1.32,1.32,0,0,0,1.36,1.25h9.52a1.31,1.31,0,0,0,1.36-1.26h0V7.77A1.3,1.3,0,0,0,18.34,6.56ZM16,21.52l2.77-2.76v1.4l-1.36,1.36Zm-2,0,4.81-4.8v1.4l-3.4,3.4Zm-2,0,2.27-2.26h1.09a1.44,1.44,0,0,0,.36-.07l-2.32,2.33Zm-2,0,2.27-2.26h1.4l-2.27,2.26ZM18.8,14l-2.27,2.27V14.92l2.27-2.27Zm0-2-2.27,2.27V12.88l2.27-2.27Zm0-2-2.27,2.27V10.84L18.8,8.57ZM16.53,18V17l2.27-2.27v1.4l-2.33,2.33A1.15,1.15,0,0,0,16.53,18ZM18.8,7.81a0,0,0,0,0,0,0v.08L16.53,10.2V8.8l1.34-1.33h.47a.41.41,0,0,1,.46.34Zm-1.57-.34-.7.69V7.47ZM5.19,18V5.65l2.5-2.52v1.7A.18.18,0,0,1,7.52,5H6.44A.46.46,0,0,0,6,5.46a.45.45,0,0,0,.45.45H7.52A1.06,1.06,0,0,0,8.59,4.83V2.48h6.73a.3.3,0,0,1,.3.31V18a.3.3,0,0,1-.3.31H5.49A.31.31,0,0,1,5.19,18Zm3.18,1.21H9.51L8.37,20.4Zm0,1.92V21l1.78-1.79h1.39L9.27,21.52H8.82a.4.4,0,0,1-.45-.34Zm10,.35h-.27l.73-.72v.37a.41.41,0,0,1-.46.35Z"/></g></svg>